<svg width="295" height="213" viewBox="0 0 295 213" fill="none" xmlns="http://www.w3.org/2000/svg">
<rect width="292" height="213" fill="white"/>
<circle cx="146.718" cy="101.433" r="30.5" fill="white" stroke="url(#paint0_linear_103_19)" stroke-width="14"/>
<path d="M67.0455 89.5114V89.3182C67.0492 88.6553 67.108 88.1269 67.2216 87.733C67.339 87.339 67.5095 87.0208 67.733 86.7784C67.9564 86.536 68.2254 86.3163 68.5398 86.1193C68.7746 85.9678 68.9848 85.8106 69.1705 85.6477C69.3561 85.4848 69.5038 85.3049 69.6136 85.108C69.7235 84.9072 69.7784 84.6837 69.7784 84.4375C69.7784 84.1761 69.7159 83.947 69.5909 83.75C69.4659 83.553 69.2973 83.4015 69.0852 83.2955C68.8769 83.1894 68.6458 83.1364 68.392 83.1364C68.1458 83.1364 67.9129 83.1913 67.6932 83.3011C67.4735 83.4072 67.2936 83.5663 67.1534 83.7784C67.0133 83.9867 66.9375 84.2462 66.9261 84.5568H64.608C64.6269 83.7992 64.8087 83.1742 65.1534 82.6818C65.4981 82.1856 65.9545 81.8163 66.5227 81.5739C67.0909 81.3277 67.7178 81.2045 68.4034 81.2045C69.1572 81.2045 69.8239 81.3295 70.4034 81.5795C70.983 81.8258 71.4375 82.1837 71.767 82.6534C72.0966 83.1231 72.2614 83.6894 72.2614 84.3523C72.2614 84.7955 72.1875 85.1894 72.0398 85.5341C71.8958 85.875 71.6932 86.178 71.4318 86.4432C71.1705 86.7045 70.8617 86.9413 70.5057 87.1534C70.2064 87.3314 69.9602 87.517 69.767 87.7102C69.5777 87.9034 69.4356 88.1269 69.3409 88.3807C69.25 88.6345 69.2027 88.947 69.1989 89.3182V89.5114H67.0455ZM68.1705 93.1477C67.7917 93.1477 67.4678 93.0152 67.1989 92.75C66.9337 92.4811 66.803 92.1591 66.8068 91.7841C66.803 91.4129 66.9337 91.0947 67.1989 90.8295C67.4678 90.5644 67.7917 90.4318 68.1705 90.4318C68.5303 90.4318 68.8466 90.5644 69.1193 90.8295C69.392 91.0947 69.5303 91.4129 69.5341 91.7841C69.5303 92.0341 69.464 92.2633 69.3352 92.4716C69.2102 92.6761 69.0455 92.8409 68.8409 92.9659C68.6364 93.0871 68.4129 93.1477 68.1705 93.1477Z" fill="#DEE0E7" fill-opacity="0.8"/>
<path d="M78.0455 122.511V122.318C78.0492 121.655 78.108 121.127 78.2216 120.733C78.339 120.339 78.5095 120.021 78.733 119.778C78.9564 119.536 79.2254 119.316 79.5398 119.119C79.7746 118.968 79.9848 118.811 80.1705 118.648C80.3561 118.485 80.5038 118.305 80.6136 118.108C80.7235 117.907 80.7784 117.684 80.7784 117.437C80.7784 117.176 80.7159 116.947 80.5909 116.75C80.4659 116.553 80.2973 116.402 80.0852 116.295C79.8769 116.189 79.6458 116.136 79.392 116.136C79.1458 116.136 78.9129 116.191 78.6932 116.301C78.4735 116.407 78.2936 116.566 78.1534 116.778C78.0133 116.987 77.9375 117.246 77.9261 117.557H75.608C75.6269 116.799 75.8087 116.174 76.1534 115.682C76.4981 115.186 76.9545 114.816 77.5227 114.574C78.0909 114.328 78.7178 114.205 79.4034 114.205C80.1572 114.205 80.8239 114.33 81.4034 114.58C81.983 114.826 82.4375 115.184 82.767 115.653C83.0966 116.123 83.2614 116.689 83.2614 117.352C83.2614 117.795 83.1875 118.189 83.0398 118.534C82.8958 118.875 82.6932 119.178 82.4318 119.443C82.1705 119.705 81.8617 119.941 81.5057 120.153C81.2064 120.331 80.9602 120.517 80.767 120.71C80.5777 120.903 80.4356 121.127 80.3409 121.381C80.25 121.634 80.2027 121.947 80.1989 122.318V122.511H78.0455ZM79.1705 126.148C78.7917 126.148 78.4678 126.015 78.1989 125.75C77.9337 125.481 77.803 125.159 77.8068 124.784C77.803 124.413 77.9337 124.095 78.1989 123.83C78.4678 123.564 78.7917 123.432 79.1705 123.432C79.5303 123.432 79.8466 123.564 80.1193 123.83C80.392 124.095 80.5303 124.413 80.5341 124.784C80.5303 125.034 80.464 125.263 80.3352 125.472C80.2102 125.676 80.0455 125.841 79.8409 125.966C79.6364 126.087 79.4129 126.148 79.1705 126.148Z" fill="#DEE0E7" fill-opacity="0.8"/>
<path d="M139.045 141.511V141.318C139.049 140.655 139.108 140.127 139.222 139.733C139.339 139.339 139.509 139.021 139.733 138.778C139.956 138.536 140.225 138.316 140.54 138.119C140.775 137.968 140.985 137.811 141.17 137.648C141.356 137.485 141.504 137.305 141.614 137.108C141.723 136.907 141.778 136.684 141.778 136.437C141.778 136.176 141.716 135.947 141.591 135.75C141.466 135.553 141.297 135.402 141.085 135.295C140.877 135.189 140.646 135.136 140.392 135.136C140.146 135.136 139.913 135.191 139.693 135.301C139.473 135.407 139.294 135.566 139.153 135.778C139.013 135.987 138.937 136.246 138.926 136.557H136.608C136.627 135.799 136.809 135.174 137.153 134.682C137.498 134.186 137.955 133.816 138.523 133.574C139.091 133.328 139.718 133.205 140.403 133.205C141.157 133.205 141.824 133.33 142.403 133.58C142.983 133.826 143.437 134.184 143.767 134.653C144.097 135.123 144.261 135.689 144.261 136.352C144.261 136.795 144.187 137.189 144.04 137.534C143.896 137.875 143.693 138.178 143.432 138.443C143.17 138.705 142.862 138.941 142.506 139.153C142.206 139.331 141.96 139.517 141.767 139.71C141.578 139.903 141.436 140.127 141.341 140.381C141.25 140.634 141.203 140.947 141.199 141.318V141.511H139.045ZM140.17 145.148C139.792 145.148 139.468 145.015 139.199 144.75C138.934 144.481 138.803 144.159 138.807 143.784C138.803 143.413 138.934 143.095 139.199 142.83C139.468 142.564 139.792 142.432 140.17 142.432C140.53 142.432 140.847 142.564 141.119 142.83C141.392 143.095 141.53 143.413 141.534 143.784C141.53 144.034 141.464 144.263 141.335 144.472C141.21 144.676 141.045 144.841 140.841 144.966C140.636 145.087 140.413 145.148 140.17 145.148Z" fill="#DEE0E7" fill-opacity="0.8"/>
<path d="M103.045 162.511V162.318C103.049 161.655 103.108 161.127 103.222 160.733C103.339 160.339 103.509 160.021 103.733 159.778C103.956 159.536 104.225 159.316 104.54 159.119C104.775 158.968 104.985 158.811 105.17 158.648C105.356 158.485 105.504 158.305 105.614 158.108C105.723 157.907 105.778 157.684 105.778 157.437C105.778 157.176 105.716 156.947 105.591 156.75C105.466 156.553 105.297 156.402 105.085 156.295C104.877 156.189 104.646 156.136 104.392 156.136C104.146 156.136 103.913 156.191 103.693 156.301C103.473 156.407 103.294 156.566 103.153 156.778C103.013 156.987 102.937 157.246 102.926 157.557H100.608C100.627 156.799 100.809 156.174 101.153 155.682C101.498 155.186 101.955 154.816 102.523 154.574C103.091 154.328 103.718 154.205 104.403 154.205C105.157 154.205 105.824 154.33 106.403 154.58C106.983 154.826 107.437 155.184 107.767 155.653C108.097 156.123 108.261 156.689 108.261 157.352C108.261 157.795 108.187 158.189 108.04 158.534C107.896 158.875 107.693 159.178 107.432 159.443C107.17 159.705 106.862 159.941 106.506 160.153C106.206 160.331 105.96 160.517 105.767 160.71C105.578 160.903 105.436 161.127 105.341 161.381C105.25 161.634 105.203 161.947 105.199 162.318V162.511H103.045ZM104.17 166.148C103.792 166.148 103.468 166.015 103.199 165.75C102.934 165.481 102.803 165.159 102.807 164.784C102.803 164.413 102.934 164.095 103.199 163.83C103.468 163.564 103.792 163.432 104.17 163.432C104.53 163.432 104.847 163.564 105.119 163.83C105.392 164.095 105.53 164.413 105.534 164.784C105.53 165.034 105.464 165.263 105.335 165.472C105.21 165.676 105.045 165.841 104.841 165.966C104.636 166.087 104.413 166.148 104.17 166.148Z" fill="#DEE0E7" fill-opacity="0.8"/>
<path d="M223.909 83.1705C223.026 83.1705 222.263 82.983 221.619 82.608C220.979 82.2292 220.485 81.7027 220.136 81.0284C219.788 80.3504 219.614 79.5644 219.614 78.6705C219.614 77.7689 219.788 76.9811 220.136 76.3068C220.485 75.6288 220.979 75.1023 221.619 74.7273C222.263 74.3485 223.026 74.1591 223.909 74.1591C224.792 74.1591 225.553 74.3485 226.193 74.7273C226.837 75.1023 227.333 75.6288 227.682 76.3068C228.03 76.9811 228.205 77.7689 228.205 78.6705C228.205 79.5644 228.03 80.3504 227.682 81.0284C227.333 81.7027 226.837 82.2292 226.193 82.608C225.553 82.983 224.792 83.1705 223.909 83.1705ZM223.92 81.2955C224.322 81.2955 224.657 81.1818 224.926 80.9545C225.195 80.7235 225.398 80.4091 225.534 80.0114C225.674 79.6136 225.744 79.161 225.744 78.6534C225.744 78.1458 225.674 77.6932 225.534 77.2955C225.398 76.8977 225.195 76.5833 224.926 76.3523C224.657 76.1212 224.322 76.0057 223.92 76.0057C223.515 76.0057 223.174 76.1212 222.898 76.3523C222.625 76.5833 222.419 76.8977 222.278 77.2955C222.142 77.6932 222.074 78.1458 222.074 78.6534C222.074 79.161 222.142 79.6136 222.278 80.0114C222.419 80.4091 222.625 80.7235 222.898 80.9545C223.174 81.1818 223.515 81.2955 223.92 81.2955Z" fill="#DEE0E7" fill-opacity="0.8"/>
<path d="M110.909 52.1705C110.027 52.1705 109.263 51.983 108.619 51.608C107.979 51.2292 107.485 50.7027 107.136 50.0284C106.788 49.3504 106.614 48.5644 106.614 47.6705C106.614 46.7689 106.788 45.9811 107.136 45.3068C107.485 44.6288 107.979 44.1023 108.619 43.7273C109.263 43.3485 110.027 43.1591 110.909 43.1591C111.792 43.1591 112.553 43.3485 113.193 43.7273C113.837 44.1023 114.333 44.6288 114.682 45.3068C115.03 45.9811 115.205 46.7689 115.205 47.6705C115.205 48.5644 115.03 49.3504 114.682 50.0284C114.333 50.7027 113.837 51.2292 113.193 51.608C112.553 51.983 111.792 52.1705 110.909 52.1705ZM110.92 50.2955C111.322 50.2955 111.657 50.1818 111.926 49.9545C112.195 49.7235 112.398 49.4091 112.534 49.0114C112.674 48.6136 112.744 48.161 112.744 47.6534C112.744 47.1458 112.674 46.6932 112.534 46.2955C112.398 45.8977 112.195 45.5833 111.926 45.3523C111.657 45.1212 111.322 45.0057 110.92 45.0057C110.515 45.0057 110.174 45.1212 109.898 45.3523C109.625 45.5833 109.419 45.8977 109.278 46.2955C109.142 46.6932 109.074 47.1458 109.074 47.6534C109.074 48.161 109.142 48.6136 109.278 49.0114C109.419 49.4091 109.625 49.7235 109.898 49.9545C110.174 50.1818 110.515 50.2955 110.92 50.2955Z" fill="#DEE0E7" fill-opacity="0.8"/>
<path d="M145.909 172.17C145.026 172.17 144.263 171.983 143.619 171.608C142.979 171.229 142.485 170.703 142.136 170.028C141.788 169.35 141.614 168.564 141.614 167.67C141.614 166.769 141.788 165.981 142.136 165.307C142.485 164.629 142.979 164.102 143.619 163.727C144.263 163.348 145.026 163.159 145.909 163.159C146.792 163.159 147.553 163.348 148.193 163.727C148.837 164.102 149.333 164.629 149.682 165.307C150.03 165.981 150.205 166.769 150.205 167.67C150.205 168.564 150.03 169.35 149.682 170.028C149.333 170.703 148.837 171.229 148.193 171.608C147.553 171.983 146.792 172.17 145.909 172.17ZM145.92 170.295C146.322 170.295 146.657 170.182 146.926 169.955C147.195 169.723 147.398 169.409 147.534 169.011C147.674 168.614 147.744 168.161 147.744 167.653C147.744 167.146 147.674 166.693 147.534 166.295C147.398 165.898 147.195 165.583 146.926 165.352C146.657 165.121 146.322 165.006 145.92 165.006C145.515 165.006 145.174 165.121 144.898 165.352C144.625 165.583 144.419 165.898 144.278 166.295C144.142 166.693 144.074 167.146 144.074 167.653C144.074 168.161 144.142 168.614 144.278 169.011C144.419 169.409 144.625 169.723 144.898 169.955C145.174 170.182 145.515 170.295 145.92 170.295Z" fill="#DEE0E7" fill-opacity="0.8"/>
<path d="M110.922 93.193C109.819 93.193 108.865 92.9586 108.06 92.4899C107.26 92.0164 106.642 91.3582 106.206 90.5154C105.771 89.6679 105.553 88.6854 105.553 87.568C105.553 86.4411 105.771 85.4562 106.206 84.6134C106.642 83.7659 107.26 83.1078 108.06 82.639C108.865 82.1655 109.819 81.9288 110.922 81.9288C112.025 81.9288 112.977 82.1655 113.777 82.639C114.582 83.1078 115.202 83.7659 115.638 84.6134C116.074 85.4562 116.291 86.4411 116.291 87.568C116.291 88.6854 116.074 89.6679 115.638 90.5154C115.202 91.3582 114.582 92.0164 113.777 92.4899C112.977 92.9586 112.025 93.193 110.922 93.193ZM110.936 90.8492C111.438 90.8492 111.857 90.7072 112.193 90.4231C112.53 90.1343 112.783 89.7413 112.953 89.2441C113.128 88.747 113.216 88.1811 113.216 87.5467C113.216 86.9122 113.128 86.3464 112.953 85.8492C112.783 85.3521 112.53 84.9591 112.193 84.6703C111.857 84.3814 111.438 84.237 110.936 84.237C110.43 84.237 110.003 84.3814 109.658 84.6703C109.317 84.9591 109.059 85.3521 108.884 85.8492C108.713 86.3464 108.628 86.9122 108.628 87.5467C108.628 88.1811 108.713 88.747 108.884 89.2441C109.059 89.7413 109.317 90.1343 109.658 90.4231C110.003 90.7072 110.43 90.8492 110.936 90.8492Z" fill="#DEE0E7" fill-opacity="0.8"/>
<path d="M198.909 102.17C198.026 102.17 197.263 101.983 196.619 101.608C195.979 101.229 195.485 100.703 195.136 100.028C194.788 99.3504 194.614 98.5644 194.614 97.6705C194.614 96.7689 194.788 95.9811 195.136 95.3068C195.485 94.6288 195.979 94.1023 196.619 93.7273C197.263 93.3485 198.026 93.1591 198.909 93.1591C199.792 93.1591 200.553 93.3485 201.193 93.7273C201.837 94.1023 202.333 94.6288 202.682 95.3068C203.03 95.9811 203.205 96.7689 203.205 97.6705C203.205 98.5644 203.03 99.3504 202.682 100.028C202.333 100.703 201.837 101.229 201.193 101.608C200.553 101.983 199.792 102.17 198.909 102.17ZM198.92 100.295C199.322 100.295 199.657 100.182 199.926 99.9545C200.195 99.7235 200.398 99.4091 200.534 99.0114C200.674 98.6136 200.744 98.161 200.744 97.6534C200.744 97.1458 200.674 96.6932 200.534 96.2955C200.398 95.8977 200.195 95.5833 199.926 95.3523C199.657 95.1212 199.322 95.0057 198.92 95.0057C198.515 95.0057 198.174 95.1212 197.898 95.3523C197.625 95.5833 197.419 95.8977 197.278 96.2955C197.142 96.6932 197.074 97.1458 197.074 97.6534C197.074 98.161 197.142 98.6136 197.278 99.0114C197.419 99.4091 197.625 99.7235 197.898 99.9545C198.174 100.182 198.515 100.295 198.92 100.295Z" fill="#DEE0E7" fill-opacity="0.8"/>
<path d="M170.045 62.5114V62.3182C170.049 61.6553 170.108 61.1269 170.222 60.733C170.339 60.339 170.509 60.0208 170.733 59.7784C170.956 59.536 171.225 59.3163 171.54 59.1193C171.775 58.9678 171.985 58.8106 172.17 58.6477C172.356 58.4848 172.504 58.3049 172.614 58.108C172.723 57.9072 172.778 57.6837 172.778 57.4375C172.778 57.1761 172.716 56.947 172.591 56.75C172.466 56.553 172.297 56.4015 172.085 56.2955C171.877 56.1894 171.646 56.1364 171.392 56.1364C171.146 56.1364 170.913 56.1913 170.693 56.3011C170.473 56.4072 170.294 56.5663 170.153 56.7784C170.013 56.9867 169.937 57.2462 169.926 57.5568H167.608C167.627 56.7992 167.809 56.1742 168.153 55.6818C168.498 55.1856 168.955 54.8163 169.523 54.5739C170.091 54.3277 170.718 54.2045 171.403 54.2045C172.157 54.2045 172.824 54.3295 173.403 54.5795C173.983 54.8258 174.437 55.1837 174.767 55.6534C175.097 56.1231 175.261 56.6894 175.261 57.3523C175.261 57.7955 175.187 58.1894 175.04 58.5341C174.896 58.875 174.693 59.178 174.432 59.4432C174.17 59.7045 173.862 59.9413 173.506 60.1534C173.206 60.3314 172.96 60.517 172.767 60.7102C172.578 60.9034 172.436 61.1269 172.341 61.3807C172.25 61.6345 172.203 61.947 172.199 62.3182V62.5114H170.045ZM171.17 66.1477C170.792 66.1477 170.468 66.0152 170.199 65.75C169.934 65.4811 169.803 65.1591 169.807 64.7841C169.803 64.4129 169.934 64.0947 170.199 63.8295C170.468 63.5644 170.792 63.4318 171.17 63.4318C171.53 63.4318 171.847 63.5644 172.119 63.8295C172.392 64.0947 172.53 64.4129 172.534 64.7841C172.53 65.0341 172.464 65.2633 172.335 65.4716C172.21 65.6761 172.045 65.8409 171.841 65.9659C171.636 66.0871 171.413 66.1477 171.17 66.1477Z" fill="#DEE0E7" fill-opacity="0.8"/>
<path d="M200.045 66.5114V66.3182C200.049 65.6553 200.108 65.1269 200.222 64.733C200.339 64.339 200.509 64.0208 200.733 63.7784C200.956 63.536 201.225 63.3163 201.54 63.1193C201.775 62.9678 201.985 62.8106 202.17 62.6477C202.356 62.4848 202.504 62.3049 202.614 62.108C202.723 61.9072 202.778 61.6837 202.778 61.4375C202.778 61.1761 202.716 60.947 202.591 60.75C202.466 60.553 202.297 60.4015 202.085 60.2955C201.877 60.1894 201.646 60.1364 201.392 60.1364C201.146 60.1364 200.913 60.1913 200.693 60.3011C200.473 60.4072 200.294 60.5663 200.153 60.7784C200.013 60.9867 199.937 61.2462 199.926 61.5568H197.608C197.627 60.7992 197.809 60.1742 198.153 59.6818C198.498 59.1856 198.955 58.8163 199.523 58.5739C200.091 58.3277 200.718 58.2045 201.403 58.2045C202.157 58.2045 202.824 58.3295 203.403 58.5795C203.983 58.8258 204.437 59.1837 204.767 59.6534C205.097 60.1231 205.261 60.6894 205.261 61.3523C205.261 61.7955 205.187 62.1894 205.04 62.5341C204.896 62.875 204.693 63.178 204.432 63.4432C204.17 63.7045 203.862 63.9413 203.506 64.1534C203.206 64.3314 202.96 64.517 202.767 64.7102C202.578 64.9034 202.436 65.1269 202.341 65.3807C202.25 65.6345 202.203 65.947 202.199 66.3182V66.5114H200.045ZM201.17 70.1477C200.792 70.1477 200.468 70.0152 200.199 69.75C199.934 69.4811 199.803 69.1591 199.807 68.7841C199.803 68.4129 199.934 68.0947 200.199 67.8295C200.468 67.5644 200.792 67.4318 201.17 67.4318C201.53 67.4318 201.847 67.5644 202.119 67.8295C202.392 68.0947 202.53 68.4129 202.534 68.7841C202.53 69.0341 202.464 69.2633 202.335 69.4716C202.21 69.6761 202.045 69.8409 201.841 69.9659C201.636 70.0871 201.413 70.1477 201.17 70.1477Z" fill="#DEE0E7" fill-opacity="0.8"/>
<path d="M205.807 125.639V125.398C205.812 124.569 205.885 123.909 206.027 123.416C206.174 122.924 206.387 122.526 206.666 122.223C206.946 121.92 207.282 121.645 207.675 121.399C207.968 121.21 208.231 121.013 208.463 120.81C208.695 120.606 208.88 120.381 209.017 120.135C209.154 119.884 209.223 119.605 209.223 119.297C209.223 118.97 209.145 118.684 208.989 118.437C208.832 118.191 208.622 118.002 208.357 117.869C208.096 117.737 207.807 117.67 207.49 117.67C207.182 117.67 206.891 117.739 206.616 117.876C206.342 118.009 206.117 118.208 205.942 118.473C205.767 118.733 205.672 119.058 205.658 119.446H202.76C202.784 118.499 203.011 117.718 203.442 117.102C203.873 116.482 204.443 116.02 205.153 115.717C205.864 115.41 206.647 115.256 207.504 115.256C208.446 115.256 209.28 115.412 210.004 115.724C210.729 116.032 211.297 116.48 211.709 117.067C212.121 117.654 212.327 118.362 212.327 119.19C212.327 119.744 212.234 120.237 212.05 120.668C211.87 121.094 211.616 121.473 211.29 121.804C210.963 122.131 210.577 122.427 210.132 122.692C209.758 122.914 209.45 123.146 209.209 123.388C208.972 123.629 208.794 123.909 208.676 124.226C208.562 124.543 208.503 124.934 208.499 125.398V125.639H205.807ZM207.213 130.185C206.74 130.185 206.335 130.019 205.999 129.687C205.667 129.351 205.504 128.949 205.509 128.48C205.504 128.016 205.667 127.618 205.999 127.287C206.335 126.955 206.74 126.79 207.213 126.79C207.663 126.79 208.058 126.955 208.399 127.287C208.74 127.618 208.913 128.016 208.918 128.48C208.913 128.793 208.83 129.079 208.669 129.339C208.513 129.595 208.307 129.801 208.051 129.957C207.795 130.109 207.516 130.185 207.213 130.185Z" fill="#DEE0E7" fill-opacity="0.8"/>
<path d="M175.665 156.947V156.778C175.668 156.198 175.719 155.736 175.819 155.391C175.922 155.047 176.071 154.768 176.266 154.556C176.462 154.344 176.697 154.152 176.972 153.979C177.178 153.847 177.362 153.709 177.524 153.567C177.687 153.424 177.816 153.267 177.912 153.094C178.008 152.919 178.056 152.723 178.056 152.508C178.056 152.279 178.001 152.079 177.892 151.906C177.783 151.734 177.635 151.601 177.45 151.509C177.267 151.416 177.065 151.369 176.843 151.369C176.628 151.369 176.424 151.417 176.232 151.513C176.039 151.606 175.882 151.746 175.759 151.931C175.637 152.113 175.57 152.34 175.56 152.612H173.532C173.549 151.949 173.708 151.402 174.009 150.972C174.311 150.537 174.71 150.214 175.207 150.002C175.705 149.787 176.253 149.679 176.853 149.679C177.513 149.679 178.096 149.788 178.603 150.007C179.11 150.223 179.508 150.536 179.796 150.947C180.085 151.358 180.229 151.853 180.229 152.433C180.229 152.821 180.164 153.166 180.035 153.467C179.909 153.766 179.732 154.031 179.503 154.263C179.274 154.491 179.004 154.699 178.692 154.884C178.431 155.04 178.215 155.202 178.046 155.371C177.88 155.54 177.756 155.736 177.673 155.958C177.594 156.18 177.552 156.454 177.549 156.778V156.947H175.665ZM176.649 160.129C176.318 160.129 176.034 160.013 175.799 159.781C175.567 159.546 175.453 159.264 175.456 158.936C175.453 158.611 175.567 158.333 175.799 158.101C176.034 157.869 176.318 157.753 176.649 157.753C176.964 157.753 177.241 157.869 177.479 158.101C177.718 158.333 177.839 158.611 177.842 158.936C177.839 159.155 177.781 159.355 177.668 159.538C177.559 159.717 177.415 159.861 177.236 159.97C177.057 160.076 176.861 160.129 176.649 160.129Z" fill="#DEE0E7" fill-opacity="0.8"/>
<path d="M134.045 53.5114V53.3182C134.049 52.6553 134.108 52.1269 134.222 51.733C134.339 51.339 134.509 51.0208 134.733 50.7784C134.956 50.536 135.225 50.3163 135.54 50.1193C135.775 49.9678 135.985 49.8106 136.17 49.6477C136.356 49.4848 136.504 49.3049 136.614 49.108C136.723 48.9072 136.778 48.6837 136.778 48.4375C136.778 48.1761 136.716 47.947 136.591 47.75C136.466 47.553 136.297 47.4015 136.085 47.2955C135.877 47.1894 135.646 47.1364 135.392 47.1364C135.146 47.1364 134.913 47.1913 134.693 47.3011C134.473 47.4072 134.294 47.5663 134.153 47.7784C134.013 47.9867 133.937 48.2462 133.926 48.5568H131.608C131.627 47.7992 131.809 47.1742 132.153 46.6818C132.498 46.1856 132.955 45.8163 133.523 45.5739C134.091 45.3277 134.718 45.2045 135.403 45.2045C136.157 45.2045 136.824 45.3295 137.403 45.5795C137.983 45.8258 138.437 46.1837 138.767 46.6534C139.097 47.1231 139.261 47.6894 139.261 48.3523C139.261 48.7955 139.187 49.1894 139.04 49.5341C138.896 49.875 138.693 50.178 138.432 50.4432C138.17 50.7045 137.862 50.9413 137.506 51.1534C137.206 51.3314 136.96 51.517 136.767 51.7102C136.578 51.9034 136.436 52.1269 136.341 52.3807C136.25 52.6345 136.203 52.947 136.199 53.3182V53.5114H134.045ZM135.17 57.1477C134.792 57.1477 134.468 57.0152 134.199 56.75C133.934 56.4811 133.803 56.1591 133.807 55.7841C133.803 55.4129 133.934 55.0947 134.199 54.8295C134.468 54.5644 134.792 54.4318 135.17 54.4318C135.53 54.4318 135.847 54.5644 136.119 54.8295C136.392 55.0947 136.53 55.4129 136.534 55.7841C136.53 56.0341 136.464 56.2633 136.335 56.4716C136.21 56.6761 136.045 56.8409 135.841 56.9659C135.636 57.0871 135.413 57.1477 135.17 57.1477Z" fill="#DEE0E7" fill-opacity="0.8"/>
<defs>
<linearGradient id="paint0_linear_103_19" x1="146.718" y1="63.9326" x2="146.718" y2="138.933" gradientUnits="userSpaceOnUse">
<stop stop-color="#93C5FD" stop-opacity="0.81"/>
<stop offset="0.459375" stop-color="#4D93F8"/>
<stop offset="1" stop-color="#3B82F6"/>
</linearGradient>
</defs>
</svg>
